<svg width="1950" height="540" viewBox="0 0 1950 540" fill="none" xmlns="http://www.w3.org/2000/svg">
<path d="M218 539.332C143.778 539.332 88.8891 519.999 53.3335 481.332C17.7779 442.221 0.000162959 386.443 0.000162959 313.999V9.332H103.333V312.665C103.333 358.443 112 393.554 129.333 417.999C147.111 442.443 177.111 454.665 219.334 454.665C262 454.665 292 442.443 309.334 417.999C326.667 393.554 335.334 358.443 335.334 312.665V9.332H436.667V313.999C436.667 386.443 418.889 442.221 383.334 481.332C347.778 519.999 292.667 539.332 218 539.332ZM536.354 529.332V9.332H715.021L887.688 448.665H903.688V9.332H996.354V529.332H817.021L644.354 89.9987H629.021V529.332H536.354ZM1276.09 538.665C1208.54 538.665 1158.09 514.888 1124.76 467.332C1091.43 419.776 1074.76 353.776 1074.76 269.332C1074.76 184.888 1091.43 118.888 1124.76 71.332C1158.09 23.7765 1208.54 -0.00132179 1276.09 -0.00132179C1344.09 -0.00132179 1394.54 23.7765 1427.43 71.332C1460.76 118.888 1477.43 184.888 1477.43 269.332C1477.43 353.776 1460.76 419.776 1427.43 467.332C1394.54 514.888 1344.09 538.665 1276.09 538.665ZM1276.09 457.999C1310.32 457.999 1335.43 442.221 1351.43 410.665C1367.43 379.11 1375.43 331.999 1375.43 269.332C1375.43 206.665 1367.43 159.554 1351.43 127.999C1335.43 96.4431 1310.32 80.6654 1276.09 80.6654C1241.87 80.6654 1216.76 96.4431 1200.76 127.999C1184.76 159.554 1176.76 206.665 1176.76 269.332C1176.76 331.999 1184.76 379.11 1200.76 410.665C1216.76 442.221 1241.87 457.999 1276.09 457.999ZM1527.89 529.332V439.999L1751.89 178.665C1762.11 166.665 1772.33 154.665 1782.55 142.665C1793.22 130.665 1804.77 118.665 1817.22 106.665V90.6654H1551.89V9.332H1943.89V98.6653L1718.55 360.665C1708.77 372.221 1698.55 383.999 1687.89 395.999C1677.22 407.999 1665.66 419.999 1653.22 431.999V447.999H1949.22V529.332H1527.89Z" fill="#EDECEC"/>
</svg>
